<mxfile host="www.draw.io" modified="2020-03-01T07:02:59.002Z" agent="Mozilla/5.0 (Macintosh; Intel Mac OS X 10_15_2) AppleWebKit/537.36 (KHTML, like Gecko) Chrome/79.0.3945.130 Safari/537.36" etag="igGoCZoLNxVnX_va_zIE" version="12.7.9" type="github">
  <diagram id="Q4VnvSh6ajyP1y70Wybg" name="Page-1">
    <mxGraphModel dx="786" dy="513" grid="1" gridSize="10" guides="1" tooltips="1" connect="1" arrows="1" fold="1" page="1" pageScale="1" pageWidth="827" pageHeight="1169" math="0" shadow="0">
      <root>
        <mxCell id="0" />
        <mxCell id="1" parent="0" />
        <mxCell id="QWDj1nxfprRpqqSH3ZDR-1" value="" style="whiteSpace=wrap;html=1;" parent="1" vertex="1">
          <mxGeometry x="60" y="200" width="700" height="780" as="geometry" />
        </mxCell>
        <mxCell id="QWDj1nxfprRpqqSH3ZDR-2" value="&lt;h1 style=&quot;font-size: 33px&quot;&gt;Diagramme de contexte&lt;/h1&gt;&lt;p style=&quot;font-size: 17px&quot;&gt;Définit les acteurs principaux et secondaire qui seront amené à utiliser l&#39;application&lt;/p&gt;" style="text;html=1;strokeColor=none;fillColor=none;spacing=5;spacingTop=-20;whiteSpace=wrap;overflow=hidden;rounded=0;align=center;fontStyle=0" parent="1" vertex="1">
          <mxGeometry x="190" y="40" width="410" height="120" as="geometry" />
        </mxCell>
        <mxCell id="QWDj1nxfprRpqqSH3ZDR-3" value="" style="rounded=1;whiteSpace=wrap;html=1;fillColor=#000000;" parent="1" vertex="1">
          <mxGeometry x="298.33" y="380" width="230" height="210" as="geometry" />
        </mxCell>
        <mxCell id="QWDj1nxfprRpqqSH3ZDR-4" value="Système de gestion&lt;br&gt;OC Pizza" style="text;html=1;align=center;verticalAlign=middle;whiteSpace=wrap;rounded=0;fontSize=18;fontStyle=1;glass=0;fillColor=#dae8fc;strokeColor=#6c8ebf;" parent="1" vertex="1">
          <mxGeometry x="333.33" y="410" width="160" height="100" as="geometry" />
        </mxCell>
        <mxCell id="QWDj1nxfprRpqqSH3ZDR-5" value="Visiteur" style="shape=umlActor;verticalLabelPosition=bottom;labelBackgroundColor=#ffffff;verticalAlign=top;html=1;outlineConnect=0;fontSize=18;fillColor=#FF8000;" parent="1" vertex="1">
          <mxGeometry x="160" y="320" width="30" height="60" as="geometry" />
        </mxCell>
        <mxCell id="QWDj1nxfprRpqqSH3ZDR-6" value="Client" style="shape=umlActor;verticalLabelPosition=bottom;labelBackgroundColor=#ffffff;verticalAlign=top;html=1;outlineConnect=0;fontSize=18;fillColor=#FF8000;" parent="1" vertex="1">
          <mxGeometry x="160" y="450" width="30" height="60" as="geometry" />
        </mxCell>
        <mxCell id="QWDj1nxfprRpqqSH3ZDR-7" value="Pizzaiolo" style="shape=umlActor;verticalLabelPosition=bottom;labelBackgroundColor=#ffffff;verticalAlign=top;html=1;outlineConnect=0;fontSize=18;fillColor=#FF8000;" parent="1" vertex="1">
          <mxGeometry x="160" y="570" width="30" height="60" as="geometry" />
        </mxCell>
        <mxCell id="QWDj1nxfprRpqqSH3ZDR-8" value="Livreur" style="shape=umlActor;verticalLabelPosition=bottom;labelBackgroundColor=#ffffff;verticalAlign=top;html=1;outlineConnect=0;fontSize=18;fillColor=#FF8000;" parent="1" vertex="1">
          <mxGeometry x="160" y="680" width="30" height="60" as="geometry" />
        </mxCell>
        <mxCell id="QWDj1nxfprRpqqSH3ZDR-9" value="Responsable" style="shape=umlActor;verticalLabelPosition=bottom;labelBackgroundColor=#ffffff;verticalAlign=top;html=1;outlineConnect=0;fontSize=18;fillColor=#FF8000;" parent="1" vertex="1">
          <mxGeometry x="160" y="810" width="30" height="60" as="geometry" />
        </mxCell>
        <mxCell id="QWDj1nxfprRpqqSH3ZDR-20" value="" style="endArrow=none;html=1;fontSize=18;entryX=0;entryY=0.75;entryDx=0;entryDy=0;" parent="1" target="QWDj1nxfprRpqqSH3ZDR-3" edge="1">
          <mxGeometry width="50" height="50" relative="1" as="geometry">
            <mxPoint x="200" y="690" as="sourcePoint" />
            <mxPoint x="110" y="1000" as="targetPoint" />
          </mxGeometry>
        </mxCell>
        <mxCell id="QWDj1nxfprRpqqSH3ZDR-21" value="" style="endArrow=none;html=1;fontSize=18;entryX=0;entryY=0.5;entryDx=0;entryDy=0;" parent="1" target="QWDj1nxfprRpqqSH3ZDR-3" edge="1">
          <mxGeometry width="50" height="50" relative="1" as="geometry">
            <mxPoint x="200" y="580" as="sourcePoint" />
            <mxPoint x="110" y="1000" as="targetPoint" />
          </mxGeometry>
        </mxCell>
        <mxCell id="QWDj1nxfprRpqqSH3ZDR-24" value="" style="endArrow=none;html=1;strokeColor=#000000;fontSize=18;entryX=0.029;entryY=0.952;entryDx=0;entryDy=0;entryPerimeter=0;" parent="1" target="QWDj1nxfprRpqqSH3ZDR-3" edge="1">
          <mxGeometry width="50" height="50" relative="1" as="geometry">
            <mxPoint x="200" y="820" as="sourcePoint" />
            <mxPoint x="110" y="1000" as="targetPoint" />
          </mxGeometry>
        </mxCell>
        <mxCell id="QWDj1nxfprRpqqSH3ZDR-25" value="" style="endArrow=none;html=1;strokeColor=#000000;fontSize=18;entryX=0;entryY=0.25;entryDx=0;entryDy=0;" parent="1" target="QWDj1nxfprRpqqSH3ZDR-3" edge="1">
          <mxGeometry width="50" height="50" relative="1" as="geometry">
            <mxPoint x="200" y="470" as="sourcePoint" />
            <mxPoint x="110" y="1000" as="targetPoint" />
          </mxGeometry>
        </mxCell>
        <mxCell id="QWDj1nxfprRpqqSH3ZDR-26" value="" style="endArrow=none;html=1;strokeColor=#000000;fontSize=18;" parent="1" target="QWDj1nxfprRpqqSH3ZDR-3" edge="1">
          <mxGeometry width="50" height="50" relative="1" as="geometry">
            <mxPoint x="190" y="350" as="sourcePoint" />
            <mxPoint x="110" y="1000" as="targetPoint" />
          </mxGeometry>
        </mxCell>
        <mxCell id="QWDj1nxfprRpqqSH3ZDR-30" value="&amp;lt;&amp;lt;&amp;lt; Système&amp;gt;&amp;gt;&amp;gt;&lt;br&gt;Système bancaire" style="shape=umlActor;verticalLabelPosition=bottom;labelBackgroundColor=#ffffff;verticalAlign=top;html=1;outlineConnect=0;fontSize=18;gradientColor=none;gradientDirection=north;fillColor=#FF8000;" parent="1" vertex="1">
          <mxGeometry x="650" y="320" width="30" height="60" as="geometry" />
        </mxCell>
        <mxCell id="QWDj1nxfprRpqqSH3ZDR-31" value="&amp;lt;&amp;lt;&amp;lt; Système&amp;gt;&amp;gt;&amp;gt;&lt;br&gt;Comptabilité" style="shape=umlActor;verticalLabelPosition=bottom;labelBackgroundColor=#ffffff;verticalAlign=top;html=1;outlineConnect=0;fontSize=18;gradientColor=none;gradientDirection=north;fillColor=#FF8000;" parent="1" vertex="1">
          <mxGeometry x="650" y="540" width="30" height="60" as="geometry" />
        </mxCell>
        <mxCell id="QWDj1nxfprRpqqSH3ZDR-32" value="" style="endArrow=none;html=1;strokeColor=#000000;fontSize=18;exitX=1;exitY=0.421;exitDx=0;exitDy=0;exitPerimeter=0;entryX=0.843;entryY=0.474;entryDx=0;entryDy=0;entryPerimeter=0;" parent="1" source="QWDj1nxfprRpqqSH3ZDR-3" edge="1" target="QWDj1nxfprRpqqSH3ZDR-1">
          <mxGeometry width="50" height="50" relative="1" as="geometry">
            <mxPoint x="60" y="1050" as="sourcePoint" />
            <mxPoint x="640" y="470" as="targetPoint" />
          </mxGeometry>
        </mxCell>
        <mxCell id="QWDj1nxfprRpqqSH3ZDR-33" value="" style="endArrow=none;html=1;strokeColor=#000000;fontSize=18;exitX=0.993;exitY=0.095;exitDx=0;exitDy=0;exitPerimeter=0;" parent="1" source="QWDj1nxfprRpqqSH3ZDR-3" edge="1">
          <mxGeometry width="50" height="50" relative="1" as="geometry">
            <mxPoint x="60" y="1050" as="sourcePoint" />
            <mxPoint x="640" y="350" as="targetPoint" />
          </mxGeometry>
        </mxCell>
      </root>
    </mxGraphModel>
  </diagram>
</mxfile>
